  0
SECTION
  2
HEADER
  9
$ANGBASE
  50
0.0
  9
$ANGDIR
  70
1
  9
$MEASUREMENT
  70
0
  0
ENDSEC
  0
SECTION
  2
TABLES
  0
TABLE
  2
LTYPE
  70
4
  0
LTYPE
  5
40F
  2
CONTINUOUS
  70
0
  3
Solid line
  72
65
  73
0
  40
0.0
  0
LTYPE
  5
410
  2
DASHDOT
 70
0
  3
Dash Dot ____ _ ____ _
 72
65
 73
4
 40
2.0
 49
1.25
 49
-0.25
 49
0.25
 49
-0.25
  0
LTYPE
  5
411
  2
DASHED
 70
0
  3
Dashed __ __ __ __ __
 72
65
 73
2
 40
0.75
 49
0.5
 49
-0.25
  0
LTYPE
  5
43B
  2
DOTTED
 70
0
  3
Dotted .  .  .  .
 72
65
 73
2
 40
0.2
 49
0.0
 49
-0.2
  0
ENDTAB
  0
TABLE
  2
STYLE
  70
4
  0
STYLE
  2
KICAD
  70
0
  40
0
  41
1
  42
1
  50
0
  71
0
  3
isocp.shx
  0
STYLE
  2
KICADB
  70
0
  40
0
  41
1
  42
1
  50
0
  71
0
  3
isocp.shx
  0
STYLE
  2
KICADI
  70
0
  40
0
  41
1
  42
1
  50
15
  71
0
  3
isocp.shx
  0
STYLE
  2
KICADBI
  70
0
  40
0
  41
1
  42
1
  50
15
  71
0
  3
isocp.shx
  0
ENDTAB
  0
TABLE
  2
LAYER
  70
1
  0
LAYER
  2
BLACK
  70
0
  62
7
  6
CONTINUOUS
  0
ENDTAB
  0
ENDSEC
  0
SECTION
  2
ENTITIES
0
CIRCLE
8
BLACK
10
0.761811
20
-5.70748
40
0.0433071
0
CIRCLE
8
BLACK
10
0.761811
20
-2.40197
40
0.0433071
0
CIRCLE
8
BLACK
10
2.43819
20
-2.37362
40
0.0433071
0
CIRCLE
8
BLACK
10
4.68504
20
-2.37795
40
0.0433071
0
CIRCLE
8
BLACK
10
3.75
20
-3.86339
40
0.0433071
0
CIRCLE
8
BLACK
10
3.95551
20
-5.70669
40
0.0433071
0
CIRCLE
8
BLACK
10
5.68465
20
-4.77598
40
0.0433071
0
CIRCLE
8
BLACK
10
6.31024
20
-4.61772
40
0.0433071
0
CIRCLE
8
BLACK
10
7.53543
20
-5.54961
40
0.0433071
0
CIRCLE
8
BLACK
10
10.4764
20
-5.54843
40
0.0433071
0
CIRCLE
8
BLACK
10
7.6752
20
-3.70315
40
0.0433071
0
CIRCLE
8
BLACK
10
6.36339
20
-2.22087
40
0.0433071
0
CIRCLE
8
BLACK
10
8.62482
20
-2.2148
40
0.0433071
0
CIRCLE
8
BLACK
10
10.4764
20
-2.19685
40
0.0433071
0
LINE
8
BLACK
6
CONTINUOUS
10
9.46308
20
-2.28515
11
10.2949
21
-2.28515
0
LINE
8
BLACK
6
CONTINUOUS
10
9.46288
20
-2.83614
11
9.46308
21
-2.28515
0
LINE
8
BLACK
6
CONTINUOUS
10
9.74413
20
-2.83594
11
9.46288
21
-2.83614
0
LINE
8
BLACK
6
CONTINUOUS
10
9.74413
20
-3.03515
11
9.74413
21
-2.83594
0
LINE
8
BLACK
6
CONTINUOUS
10
9.65038
20
-3.03515
11
9.74413
21
-3.03515
0
LINE
8
BLACK
6
CONTINUOUS
10
9.65038
20
-3.58593
11
9.65038
21
-3.03515
0
LINE
8
BLACK
6
CONTINUOUS
10
10.2949
20
-3.58593
11
9.65038
21
-3.58593
0
LINE
8
BLACK
6
CONTINUOUS
10
10.2949
20
-2.28515
11
10.2949
21
-3.58593
0
ARC
8
BLACK
10
5.63671
20
-3.83203
40
0.0117187
50
180
51
270
0
LINE
8
BLACK
6
CONTINUOUS
10
5.63671
20
-3.84375
11
5.98828
21
-3.84375
0
ARC
8
BLACK
10
5.66601
20
-5.89453
40
0.0119102
50
-90
51
-0
0
LINE
8
BLACK
6
CONTINUOUS
10
5.67773
20
-5.15039
11
5.67792
21
-5.89453
0
LINE
8
BLACK
6
CONTINUOUS
10
5.99999
20
-4.59375
11
5.67772
21
-5.15039
0
LINE
8
BLACK
6
CONTINUOUS
10
6.05273
20
-5.74804
11
6.33398
21
-5.74804
0
LINE
8
BLACK
6
CONTINUOUS
10
5.85351
20
-4.99218
11
6.05273
21
-5.74804
0
LINE
8
BLACK
6
CONTINUOUS
10
6.17578
20
-4.43554
11
5.85351
21
-4.99218
0
CIRCLE
8
BLACK
10
6.15234
20
-4.25976
40
0.0117187
0
CIRCLE
8
BLACK
10
6.02343
20
-4.29492
40
0.0117187
0
CIRCLE
8
BLACK
10
6.15234
20
-4.33007
40
0.0117187
0
CIRCLE
8
BLACK
10
6.02343
20
-4.36523
40
0.0117187
0
CIRCLE
8
BLACK
10
6.02343
20
-4.25976
40
0.0117187
0
CIRCLE
8
BLACK
10
6.15234
20
-4.36523
40
0.0117187
0
CIRCLE
8
BLACK
10
6.02343
20
-4.33007
40
0.0117187
0
CIRCLE
8
BLACK
10
6.15234
20
-4.29492
40
0.0117187
0
LINE
8
BLACK
6
CONTINUOUS
10
6.00585
20
-4.39453
11
6.16992
21
-4.39453
0
LINE
8
BLACK
6
CONTINUOUS
10
6.00585
20
-4.23632
11
6.16992
21
-4.23632
0
ARC
8
BLACK
10
6.16992
20
-4.23047
40
0.00585937
50
-90
51
-0
0
ARC
8
BLACK
10
6.16992
20
-4.40039
40
0.00585937
50
-0
51
90
0
ARC
8
BLACK
10
6.00585
20
-4.40039
40
0.00585937
50
90
51
180
0
ARC
8
BLACK
10
6.00585
20
-4.23047
40
0.00585937
50
180
51
270
0
CIRCLE
8
BLACK
10
5.77734
20
-3.22265
40
0.0117187
0
CIRCLE
8
BLACK
10
5.64843
20
-3.25781
40
0.0117187
0
CIRCLE
8
BLACK
10
5.77734
20
-3.29297
40
0.0117187
0
CIRCLE
8
BLACK
10
5.64843
20
-3.32812
40
0.0117187
0
CIRCLE
8
BLACK
10
5.64843
20
-3.22265
40
0.0117187
0
CIRCLE
8
BLACK
10
5.77734
20
-3.32812
40
0.0117187
0
CIRCLE
8
BLACK
10
5.64843
20
-3.29297
40
0.0117187
0
CIRCLE
8
BLACK
10
5.77734
20
-3.25781
40
0.0117187
0
LINE
8
BLACK
6
CONTINUOUS
10
5.63085
20
-3.35742
11
5.79492
21
-3.35742
0
LINE
8
BLACK
6
CONTINUOUS
10
5.63085
20
-3.19922
11
5.79492
21
-3.19922
0
ARC
8
BLACK
10
5.79492
20
-3.19336
40
0.00585937
50
-90
51
-0
0
ARC
8
BLACK
10
5.79492
20
-3.36328
40
0.00585937
50
-0
51
90
0
ARC
8
BLACK
10
5.63085
20
-3.36328
40
0.00585937
50
90
51
180
0
ARC
8
BLACK
10
5.63085
20
-3.19336
40
0.00585937
50
180
51
270
0
CIRCLE
8
BLACK
10
5.21484
20
-1.93359
40
0.0117187
0
CIRCLE
8
BLACK
10
5.21484
20
-2.0039
40
0.0117187
0
CIRCLE
8
BLACK
10
5.21484
20
-1.89844
40
0.0117187
0
CIRCLE
8
BLACK
10
5.21484
20
-1.96875
40
0.0117187
0
CIRCLE
8
BLACK
10
5.08593
20
-2.0039
40
0.0117187
0
CIRCLE
8
BLACK
10
5.08593
20
-1.96875
40
0.0117187
0
CIRCLE
8
BLACK
10
5.08593
20
-1.93359
40
0.0117187
0
CIRCLE
8
BLACK
10
5.08593
20
-1.89844
40
0.0117187
0
ARC
8
BLACK
10
5.06836
20
-1.86914
40
0.00585937
50
180
51
270
0
LINE
8
BLACK
6
CONTINUOUS
10
5.0625
20
-2.03906
11
5.0625
21
-2.33203
0
ARC
8
BLACK
10
5.06836
20
-2.03906
40
0.00585937
50
90
51
180
0
LINE
8
BLACK
6
CONTINUOUS
10
0.5625
20
-1.60547
11
0.562691
21
-5.89472
0
LINE
8
BLACK
6
CONTINUOUS
10
10.6758
20
-5.73632
11
10.6758
21
-1.44726
0
LINE
8
BLACK
6
CONTINUOUS
10
5.99999
20
-4.40039
11
5.99999
21
-4.59375
0
LINE
8
BLACK
6
CONTINUOUS
10
6.17578
20
-4.43554
11
6.17578
21
-4.40039
0
ARC
8
BLACK
10
10.6641
20
-5.73632
40
0.0117187
50
-90
51
-0
0
LINE
8
BLACK
6
CONTINUOUS
10
6.33398
20
-5.74804
11
10.6641
21
-5.74804
0
ARC
8
BLACK
10
5.23242
20
-2.03906
40
0.00585937
50
-0
51
90
0
ARC
8
BLACK
10
5.23242
20
-1.86914
40
0.00585937
50
-90
51
-0
0
LINE
8
BLACK
6
CONTINUOUS
10
5.80078
20
-3.19336
11
5.80078
21
-2.94726
0
LINE
8
BLACK
6
CONTINUOUS
10
5.80078
20
-3.36328
11
5.80078
21
-3.67383
0
LINE
8
BLACK
6
CONTINUOUS
10
5.625
20
-3.36328
11
5.625
21
-3.83203
0
LINE
8
BLACK
6
CONTINUOUS
10
5.625
20
-3.19336
11
5.625
21
-3.10547
0
LINE
8
BLACK
6
CONTINUOUS
10
5.23828
20
-1.86914
11
5.23828
21
-1.44726
0
LINE
8
BLACK
6
CONTINUOUS
10
5.23828
20
-2.03906
11
5.23828
21
-2.17383
0
LINE
8
BLACK
6
CONTINUOUS
10
5.0625
20
-1.60547
11
5.0625
21
-1.86914
0
LINE
8
BLACK
6
CONTINUOUS
10
5.06836
20
-2.0332
11
5.23242
21
-2.0332
0
LINE
8
BLACK
6
CONTINUOUS
10
5.06836
20
-1.875
11
5.23242
21
-1.875
0
LINE
8
BLACK
6
CONTINUOUS
10
5.32031
20
-1.43555
11
10.6641
21
-1.43553
0
LINE
8
BLACK
6
CONTINUOUS
10
5.32031
20
-1.43555
11
5.25
21
-1.43555
0
LINE
8
BLACK
6
CONTINUOUS
10
2.95119
20
-1.59375
11
5.05078
21
-1.59375
0
LINE
8
BLACK
6
CONTINUOUS
10
2.95119
20
-1.59375
11
0.574218
21
-1.59375
0
ARC
8
BLACK
10
5.25
20
-1.44726
40
0.0117187
50
90
51
180
0
ARC
8
BLACK
10
10.6641
20
-1.44726
40
0.0117372
50
-0
51
90
0
ARC
8
BLACK
10
0.574218
20
-1.60547
40
0.0117174
50
90
51
180
0
ARC
8
BLACK
10
5.05078
20
-1.60547
40
0.0117187
50
-0
51
90
0
ARC
8
BLACK
10
5.07421
20
-2.33203
40
0.0117187
50
180
51
270
0
ARC
8
BLACK
10
5.42578
20
-2.35547
40
0.0117187
50
-0
51
90
0
ARC
8
BLACK
10
5.44921
20
-3.08203
40
0.0117142
50
180
51
270
0
ARC
8
BLACK
10
5.61328
20
-3.10547
40
0.0117187
50
-0
51
90
0
ARC
8
BLACK
10
5.98828
20
-3.85547
40
0.0117187
50
-0
51
90
0
ARC
8
BLACK
10
0.574218
20
-5.89472
40
0.0115273
50
180
51
270
0
ARC
8
BLACK
10
5.25
20
-2.17383
40
0.0117187
50
180
51
270
0
ARC
8
BLACK
10
5.60156
20
-2.19726
40
0.0117187
50
-0
51
90
0
ARC
8
BLACK
10
5.625
20
-2.92383
40
0.0117138
50
180
51
270
0
ARC
8
BLACK
10
5.78906
20
-2.94726
40
0.0117187
50
-0
51
90
0
ARC
8
BLACK
10
5.8125
20
-3.67383
40
0.0117136
50
180
51
270
0
ARC
8
BLACK
10
6.16406
20
-3.69726
40
0.0117187
50
-0
51
90
0
LINE
8
BLACK
6
CONTINUOUS
10
5.99999
20
-3.85547
11
5.99999
21
-4.23047
0
LINE
8
BLACK
6
CONTINUOUS
10
5.44921
20
-3.09375
11
5.61328
21
-3.09375
0
LINE
8
BLACK
6
CONTINUOUS
10
5.4375
20
-2.35547
11
5.4375
21
-3.08203
0
LINE
8
BLACK
6
CONTINUOUS
10
5.07421
20
-2.34375
11
5.42578
21
-2.34375
0
LINE
8
BLACK
6
CONTINUOUS
10
6.17578
20
-3.69726
11
6.17578
21
-4.23047
0
LINE
8
BLACK
6
CONTINUOUS
10
5.98828
20
-3.68555
11
6.16406
21
-3.68554
0
LINE
8
BLACK
6
CONTINUOUS
10
5.81249
20
-3.68554
11
5.98828
21
-3.68554
0
LINE
8
BLACK
6
CONTINUOUS
10
5.625
20
-2.93555
11
5.78906
21
-2.93554
0
LINE
8
BLACK
6
CONTINUOUS
10
5.61328
20
-2.19726
11
5.61328
21
-2.92383
0
LINE
8
BLACK
6
CONTINUOUS
10
5.25
20
-2.18555
11
5.60156
21
-2.18555
0
LINE
8
BLACK
6
CONTINUOUS
10
5.66601
20
-5.90644
11
0.574218
21
-5.90625
0
LINE
8
BLACK
6
CONTINUOUS
10
7.95137
20
-3.03495
11
7.95137
21
-3.58613
0
LINE
8
BLACK
6
CONTINUOUS
10
7.40018
20
-3.03495
11
7.95137
21
-3.03495
0
LINE
8
BLACK
6
CONTINUOUS
10
7.40018
20
-3.58613
11
7.95137
21
-3.58613
0
LINE
8
BLACK
6
CONTINUOUS
10
7.40018
20
-3.03495
11
7.40018
21
-3.58613
0
LINE
8
BLACK
6
CONTINUOUS
10
6.45137
20
-3.03495
11
6.45137
21
-3.58613
0
LINE
8
BLACK
6
CONTINUOUS
10
5.90019
20
-3.03495
11
6.45137
21
-3.03495
0
LINE
8
BLACK
6
CONTINUOUS
10
5.90019
20
-3.58613
11
6.45137
21
-3.58613
0
LINE
8
BLACK
6
CONTINUOUS
10
5.90019
20
-3.03495
11
5.90019
21
-3.58613
0
LINE
8
BLACK
6
CONTINUOUS
10
8.70136
20
-3.03495
11
8.70136
21
-3.58613
0
LINE
8
BLACK
6
CONTINUOUS
10
8.15018
20
-3.03495
11
8.70136
21
-3.03495
0
LINE
8
BLACK
6
CONTINUOUS
10
8.15018
20
-3.58613
11
8.70136
21
-3.58613
0
LINE
8
BLACK
6
CONTINUOUS
10
8.15018
20
-3.03495
11
8.15018
21
-3.58613
0
LINE
8
BLACK
6
CONTINUOUS
10
9.45136
20
-3.03495
11
9.45136
21
-3.58613
0
LINE
8
BLACK
6
CONTINUOUS
10
8.90018
20
-3.03495
11
9.45136
21
-3.03495
0
LINE
8
BLACK
6
CONTINUOUS
10
8.90018
20
-3.58613
11
9.45136
21
-3.58613
0
LINE
8
BLACK
6
CONTINUOUS
10
8.90018
20
-3.03495
11
8.90018
21
-3.58613
0
LINE
8
BLACK
6
CONTINUOUS
10
7.20137
20
-3.03495
11
7.20137
21
-3.58613
0
LINE
8
BLACK
6
CONTINUOUS
10
6.65018
20
-3.03495
11
7.20137
21
-3.03495
0
LINE
8
BLACK
6
CONTINUOUS
10
6.65018
20
-3.58613
11
7.20137
21
-3.58613
0
LINE
8
BLACK
6
CONTINUOUS
10
6.65018
20
-3.03495
11
6.65018
21
-3.58613
0
LINE
8
BLACK
6
CONTINUOUS
10
8.23914
20
-4.55119
11
8.31108
21
-5.09765
0
LINE
8
BLACK
6
CONTINUOUS
10
7.69267
20
-4.62313
11
8.23914
21
-4.55119
0
LINE
8
BLACK
6
CONTINUOUS
10
7.76462
20
-5.1696
11
8.31108
21
-5.09765
0
LINE
8
BLACK
6
CONTINUOUS
10
7.69267
20
-4.62313
11
7.76462
21
-5.1696
0
LINE
8
BLACK
6
CONTINUOUS
10
6.22877
20
-5.56665
11
6.23208
21
-5.56577
0
LINE
8
BLACK
6
CONTINUOUS
10
6.53258
20
-5.54639
11
6.52239
21
-5.50836
0
LINE
8
BLACK
6
CONTINUOUS
10
6.0722
20
-5.05836
11
6.20466
21
-5.55273
0
LINE
8
BLACK
6
CONTINUOUS
10
6.25619
20
-5.57968
11
6.26638
21
-5.61771
0
LINE
8
BLACK
6
CONTINUOUS
10
6.29049
20
-5.63163
11
6.51866
21
-5.57049
0
LINE
8
BLACK
6
CONTINUOUS
10
7.16416
20
-5.3364
11
7.17435
21
-5.37442
0
LINE
8
BLACK
6
CONTINUOUS
10
7.30493
20
-4.70767
11
6.08612
21
-5.03425
0
LINE
8
BLACK
6
CONTINUOUS
10
7.46151
20
-5.21596
11
7.32904
21
-4.72159
0
LINE
8
BLACK
6
CONTINUOUS
10
7.44428
20
-5.24096
11
7.44759
21
-5.24007
0
LINE
8
BLACK
6
CONTINUOUS
10
7.19846
20
-5.38834
11
7.42663
21
-5.3272
0
LINE
8
BLACK
6
CONTINUOUS
10
7.44055
20
-5.3031
11
7.43036
21
-5.26507
0
LINE
8
BLACK
6
CONTINUOUS
10
6.53631
20
-5.48425
11
7.14005
21
-5.32248
0
ARC
8
BLACK
10
7.44937
20
-5.25997
40
0.019685
50
105
51
195
0
ARC
8
BLACK
10
7.31003
20
-4.72669
40
0.019685
50
15.0001
51
105
0
ARC
8
BLACK
10
7.44249
20
-5.22106
40
0.019685
50
-75.0001
51
14.9999
0
ARC
8
BLACK
10
7.42154
20
-5.30819
40
0.019685
50
-75.0001
51
14.9999
0
ARC
8
BLACK
10
7.19336
20
-5.36933
40
0.019685
50
-165
51
-75.0001
0
ARC
8
BLACK
10
6.09121
20
-5.05327
40
0.019685
50
105
51
195
0
ARC
8
BLACK
10
6.22368
20
-5.54764
40
0.019685
50
-165
51
-75.0001
0
ARC
8
BLACK
10
6.51357
20
-5.55148
40
0.019685
50
-75.0001
51
14.9999
0
ARC
8
BLACK
10
6.23718
20
-5.58478
40
0.019685
50
14.9999
51
105
0
ARC
8
BLACK
10
6.5414
20
-5.50326
40
0.019685
50
105
51
195
0
ARC
8
BLACK
10
6.28539
20
-5.61262
40
0.019685
50
-165
51
-74.9999
0
ARC
8
BLACK
10
7.14515
20
-5.34149
40
0.019685
50
15.0001
51
105
0
LINE
8
BLACK
6
CONTINUOUS
10
10.5764
20
-4.53495
11
10.5764
21
-5.08613
0
LINE
8
BLACK
6
CONTINUOUS
10
10.0252
20
-4.53495
11
10.5764
21
-4.53495
0
LINE
8
BLACK
6
CONTINUOUS
10
10.0252
20
-5.08613
11
10.5764
21
-5.08613
0
LINE
8
BLACK
6
CONTINUOUS
10
10.0252
20
-4.53495
11
10.0252
21
-5.08613
0
LINE
8
BLACK
6
CONTINUOUS
10
9.07636
20
-4.53495
11
9.07636
21
-5.08613
0
LINE
8
BLACK
6
CONTINUOUS
10
8.52518
20
-4.53495
11
9.07636
21
-4.53495
0
LINE
8
BLACK
6
CONTINUOUS
10
8.52518
20
-5.08613
11
9.07636
21
-5.08613
0
LINE
8
BLACK
6
CONTINUOUS
10
8.52518
20
-4.53495
11
8.52518
21
-5.08613
0
LINE
8
BLACK
6
CONTINUOUS
10
9.82636
20
-4.53495
11
9.82636
21
-5.08613
0
LINE
8
BLACK
6
CONTINUOUS
10
9.27518
20
-4.53495
11
9.82636
21
-4.53495
0
LINE
8
BLACK
6
CONTINUOUS
10
9.27518
20
-5.08613
11
9.82636
21
-5.08613
0
LINE
8
BLACK
6
CONTINUOUS
10
9.27518
20
-4.53495
11
9.27518
21
-5.08613
0
LINE
8
BLACK
6
CONTINUOUS
10
8.32637
20
-3.78495
11
8.32637
21
-4.33613
0
LINE
8
BLACK
6
CONTINUOUS
10
7.77518
20
-3.78495
11
8.32637
21
-3.78495
0
LINE
8
BLACK
6
CONTINUOUS
10
7.77518
20
-4.33613
11
8.32637
21
-4.33613
0
LINE
8
BLACK
6
CONTINUOUS
10
7.77518
20
-3.78495
11
7.77518
21
-4.33613
0
LINE
8
BLACK
6
CONTINUOUS
10
9.82636
20
-3.78495
11
9.82636
21
-4.33613
0
LINE
8
BLACK
6
CONTINUOUS
10
9.27518
20
-3.78495
11
9.82636
21
-3.78495
0
LINE
8
BLACK
6
CONTINUOUS
10
9.27518
20
-4.33613
11
9.82636
21
-4.33613
0
LINE
8
BLACK
6
CONTINUOUS
10
9.27518
20
-3.78495
11
9.27518
21
-4.33613
0
LINE
8
BLACK
6
CONTINUOUS
10
6.82637
20
-3.78495
11
6.82637
21
-4.33613
0
LINE
8
BLACK
6
CONTINUOUS
10
6.27519
20
-3.78495
11
6.82637
21
-3.78495
0
LINE
8
BLACK
6
CONTINUOUS
10
6.27519
20
-4.33613
11
6.82637
21
-4.33613
0
LINE
8
BLACK
6
CONTINUOUS
10
6.27519
20
-3.78495
11
6.27519
21
-4.33613
0
LINE
8
BLACK
6
CONTINUOUS
10
7.57637
20
-3.78495
11
7.57637
21
-4.33613
0
LINE
8
BLACK
6
CONTINUOUS
10
7.02518
20
-3.78495
11
7.57637
21
-3.78495
0
LINE
8
BLACK
6
CONTINUOUS
10
7.02518
20
-4.33613
11
7.57637
21
-4.33613
0
LINE
8
BLACK
6
CONTINUOUS
10
7.02518
20
-3.78495
11
7.02518
21
-4.33613
0
LINE
8
BLACK
6
CONTINUOUS
10
10.5764
20
-3.78495
11
10.5764
21
-4.33613
0
LINE
8
BLACK
6
CONTINUOUS
10
10.0252
20
-3.78495
11
10.5764
21
-3.78495
0
LINE
8
BLACK
6
CONTINUOUS
10
10.0252
20
-4.33613
11
10.5764
21
-4.33613
0
LINE
8
BLACK
6
CONTINUOUS
10
10.0252
20
-3.78495
11
10.0252
21
-4.33613
0
LINE
8
BLACK
6
CONTINUOUS
10
9.07636
20
-3.78495
11
9.07636
21
-4.33613
0
LINE
8
BLACK
6
CONTINUOUS
10
8.52518
20
-3.78495
11
9.07636
21
-3.78495
0
LINE
8
BLACK
6
CONTINUOUS
10
8.52518
20
-4.33613
11
9.07636
21
-4.33613
0
LINE
8
BLACK
6
CONTINUOUS
10
8.52518
20
-3.78495
11
8.52518
21
-4.33613
0
LINE
8
BLACK
6
CONTINUOUS
10
7.76387
20
-2.28495
11
7.76387
21
-2.83614
0
LINE
8
BLACK
6
CONTINUOUS
10
7.21268
20
-2.28495
11
7.76387
21
-2.28495
0
LINE
8
BLACK
6
CONTINUOUS
10
7.21268
20
-2.83614
11
7.76387
21
-2.83614
0
LINE
8
BLACK
6
CONTINUOUS
10
7.21268
20
-2.28495
11
7.21268
21
-2.83614
0
LINE
8
BLACK
6
CONTINUOUS
10
9.26386
20
-2.28495
11
9.26386
21
-2.83614
0
LINE
8
BLACK
6
CONTINUOUS
10
8.71268
20
-2.28495
11
9.26386
21
-2.28495
0
LINE
8
BLACK
6
CONTINUOUS
10
8.71268
20
-2.83614
11
9.26386
21
-2.83614
0
LINE
8
BLACK
6
CONTINUOUS
10
8.71268
20
-2.28495
11
8.71268
21
-2.83614
0
LINE
8
BLACK
6
CONTINUOUS
10
6.26387
20
-2.28495
11
6.26387
21
-2.83614
0
LINE
8
BLACK
6
CONTINUOUS
10
5.71269
20
-2.28495
11
6.26387
21
-2.28495
0
LINE
8
BLACK
6
CONTINUOUS
10
5.71269
20
-2.83614
11
6.26387
21
-2.83614
0
LINE
8
BLACK
6
CONTINUOUS
10
5.71269
20
-2.28495
11
5.71269
21
-2.83614
0
LINE
8
BLACK
6
CONTINUOUS
10
7.01387
20
-2.28495
11
7.01387
21
-2.83614
0
LINE
8
BLACK
6
CONTINUOUS
10
6.46269
20
-2.28495
11
7.01387
21
-2.28495
0
LINE
8
BLACK
6
CONTINUOUS
10
6.46269
20
-2.83614
11
7.01387
21
-2.83614
0
LINE
8
BLACK
6
CONTINUOUS
10
6.46269
20
-2.28495
11
6.46269
21
-2.83614
0
LINE
8
BLACK
6
CONTINUOUS
10
8.51386
20
-2.28495
11
8.51386
21
-2.83614
0
LINE
8
BLACK
6
CONTINUOUS
10
7.96268
20
-2.28495
11
8.51386
21
-2.28495
0
LINE
8
BLACK
6
CONTINUOUS
10
7.96268
20
-2.83614
11
8.51386
21
-2.83614
0
LINE
8
BLACK
6
CONTINUOUS
10
7.96268
20
-2.28495
11
7.96268
21
-2.83614
0
LINE
8
BLACK
6
CONTINUOUS
10
10.3889
20
-1.53495
11
10.3889
21
-2.08614
0
LINE
8
BLACK
6
CONTINUOUS
10
9.83768
20
-1.53495
11
10.3889
21
-1.53495
0
LINE
8
BLACK
6
CONTINUOUS
10
9.83768
20
-2.08614
11
10.3889
21
-2.08614
0
LINE
8
BLACK
6
CONTINUOUS
10
9.83768
20
-1.53495
11
9.83768
21
-2.08614
0
LINE
8
BLACK
6
CONTINUOUS
10
9.63886
20
-1.53495
11
9.63886
21
-2.08614
0
LINE
8
BLACK
6
CONTINUOUS
10
9.08768
20
-1.53495
11
9.63886
21
-1.53495
0
LINE
8
BLACK
6
CONTINUOUS
10
9.08768
20
-2.08614
11
9.63886
21
-2.08614
0
LINE
8
BLACK
6
CONTINUOUS
10
9.08768
20
-1.53495
11
9.08768
21
-2.08614
0
LINE
8
BLACK
6
CONTINUOUS
10
5.88887
20
-1.53495
11
5.88887
21
-2.08614
0
LINE
8
BLACK
6
CONTINUOUS
10
5.33769
20
-1.53495
11
5.88887
21
-1.53495
0
LINE
8
BLACK
6
CONTINUOUS
10
5.33769
20
-2.08614
11
5.88887
21
-2.08614
0
LINE
8
BLACK
6
CONTINUOUS
10
5.33769
20
-1.53495
11
5.33769
21
-2.08614
0
LINE
8
BLACK
6
CONTINUOUS
10
8.88886
20
-1.53495
11
8.88886
21
-2.08614
0
LINE
8
BLACK
6
CONTINUOUS
10
8.33768
20
-1.53495
11
8.88886
21
-1.53495
0
LINE
8
BLACK
6
CONTINUOUS
10
8.33768
20
-2.08614
11
8.88886
21
-2.08614
0
LINE
8
BLACK
6
CONTINUOUS
10
8.33768
20
-1.53495
11
8.33768
21
-2.08614
0
LINE
8
BLACK
6
CONTINUOUS
10
6.63887
20
-1.53495
11
6.63887
21
-2.08614
0
LINE
8
BLACK
6
CONTINUOUS
10
6.08769
20
-1.53495
11
6.63887
21
-1.53495
0
LINE
8
BLACK
6
CONTINUOUS
10
6.08769
20
-2.08614
11
6.63887
21
-2.08614
0
LINE
8
BLACK
6
CONTINUOUS
10
6.08769
20
-1.53495
11
6.08769
21
-2.08614
0
LINE
8
BLACK
6
CONTINUOUS
10
7.38887
20
-1.53495
11
7.38887
21
-2.08614
0
LINE
8
BLACK
6
CONTINUOUS
10
6.83768
20
-1.53495
11
7.38887
21
-1.53495
0
LINE
8
BLACK
6
CONTINUOUS
10
6.83768
20
-2.08614
11
7.38887
21
-2.08614
0
LINE
8
BLACK
6
CONTINUOUS
10
6.83768
20
-1.53495
11
6.83768
21
-2.08614
0
LINE
8
BLACK
6
CONTINUOUS
10
8.13887
20
-1.53495
11
8.13887
21
-2.08614
0
LINE
8
BLACK
6
CONTINUOUS
10
7.58768
20
-1.53495
11
8.13887
21
-1.53495
0
LINE
8
BLACK
6
CONTINUOUS
10
7.58768
20
-2.08614
11
8.13887
21
-2.08614
0
LINE
8
BLACK
6
CONTINUOUS
10
7.58768
20
-1.53495
11
7.58768
21
-2.08614
0
LINE
8
BLACK
6
CONTINUOUS
10
4.17213
20
-5.35593
11
4.17546
21
-5.35676
0
LINE
8
BLACK
6
CONTINUOUS
10
4.44767
20
-5.48549
11
4.4572
21
-5.44729
0
LINE
8
BLACK
6
CONTINUOUS
10
4.28161
20
-4.83546
11
4.15779
21
-5.33206
0
LINE
8
BLACK
6
CONTINUOUS
10
4.18979
20
-5.38062
11
4.18027
21
-5.41882
0
LINE
8
BLACK
6
CONTINUOUS
10
4.19461
20
-5.44268
11
4.42381
21
-5.49983
0
LINE
8
BLACK
6
CONTINUOUS
10
5.10187
20
-5.60802
11
5.09235
21
-5.64623
0
LINE
8
BLACK
6
CONTINUOUS
10
5.5298
20
-5.12638
11
4.30547
21
-4.82112
0
LINE
8
BLACK
6
CONTINUOUS
10
5.42032
20
-5.64685
11
5.54414
21
-5.15024
0
LINE
8
BLACK
6
CONTINUOUS
10
5.39314
20
-5.66036
11
5.39646
21
-5.66119
0
LINE
8
BLACK
6
CONTINUOUS
10
5.10668
20
-5.67009
11
5.33589
21
-5.72723
0
LINE
8
BLACK
6
CONTINUOUS
10
5.35975
20
-5.7129
11
5.36928
21
-5.6747
0
LINE
8
BLACK
6
CONTINUOUS
10
4.48106
20
-5.43295
11
5.08753
21
-5.58416
0
ARC
8
BLACK
10
5.38838
20
-5.67946
40
0.019685
50
76
51
166
0
ARC
8
BLACK
10
5.52504
20
-5.14548
40
0.019685
50
-14
51
76
0
ARC
8
BLACK
10
5.40122
20
-5.64209
40
0.019685
50
-104
51
-14
0
ARC
8
BLACK
10
5.34065
20
-5.70813
40
0.019685
50
-104
51
-14
0
ARC
8
BLACK
10
5.11145
20
-5.65099
40
0.019685
50
166
51
256
0
ARC
8
BLACK
10
4.30071
20
-4.84022
40
0.019685
50
76
51
166
0
ARC
8
BLACK
10
4.17689
20
-5.33683
40
0.019685
50
166
51
256
0
ARC
8
BLACK
10
4.42857
20
-5.48073
40
0.019685
50
-104
51
-14
0
ARC
8
BLACK
10
4.17069
20
-5.37586
40
0.019685
50
-14
51
76
0
ARC
8
BLACK
10
4.4763
20
-5.45205
40
0.019685
50
76
51
166
0
ARC
8
BLACK
10
4.19937
20
-5.42358
40
0.019685
50
166
51
256
0
ARC
8
BLACK
10
5.08277
20
-5.60326
40
0.019685
50
-14
51
76
0
LINE
8
BLACK
6
CONTINUOUS
10
3.39566
20
-5.25275
11
3.45805
21
-4.70511
0
LINE
8
BLACK
6
CONTINUOUS
10
3.9433
20
-5.31514
11
3.39566
21
-5.25275
0
LINE
8
BLACK
6
CONTINUOUS
10
4.00569
20
-4.7675
11
3.45805
21
-4.70511
0
LINE
8
BLACK
6
CONTINUOUS
10
3.9433
20
-5.31514
11
4.00569
21
-4.7675
0
LINE
8
BLACK
6
CONTINUOUS
10
1.30684
20
-4.69316
11
1.30684
21
-5.24434
0
LINE
8
BLACK
6
CONTINUOUS
10
0.755659
20
-4.69316
11
1.30684
21
-4.69316
0
LINE
8
BLACK
6
CONTINUOUS
10
0.755659
20
-5.24434
11
1.30684
21
-5.24434
0
LINE
8
BLACK
6
CONTINUOUS
10
0.755659
20
-4.69316
11
0.755659
21
-5.24434
0
LINE
8
BLACK
6
CONTINUOUS
10
3.08809
20
-4.69316
11
3.08809
21
-5.24434
0
LINE
8
BLACK
6
CONTINUOUS
10
2.53691
20
-4.69316
11
3.08809
21
-4.69316
0
LINE
8
BLACK
6
CONTINUOUS
10
2.53691
20
-5.24434
11
3.08809
21
-5.24434
0
LINE
8
BLACK
6
CONTINUOUS
10
2.53691
20
-4.69316
11
2.53691
21
-5.24434
0
LINE
8
BLACK
6
CONTINUOUS
10
5.90059
20
-3.94316
11
5.90059
21
-4.49434
0
LINE
8
BLACK
6
CONTINUOUS
10
5.3494
20
-3.94316
11
5.90059
21
-3.94316
0
LINE
8
BLACK
6
CONTINUOUS
10
5.3494
20
-4.49434
11
5.90059
21
-4.49434
0
LINE
8
BLACK
6
CONTINUOUS
10
5.3494
20
-3.94316
11
5.3494
21
-4.49434
0
LINE
8
BLACK
6
CONTINUOUS
10
3.65059
20
-3.94316
11
3.65059
21
-4.49434
0
LINE
8
BLACK
6
CONTINUOUS
10
3.09941
20
-3.94316
11
3.65059
21
-3.94316
0
LINE
8
BLACK
6
CONTINUOUS
10
3.09941
20
-4.49434
11
3.65059
21
-4.49434
0
LINE
8
BLACK
6
CONTINUOUS
10
3.09941
20
-3.94316
11
3.09941
21
-4.49434
0
LINE
8
BLACK
6
CONTINUOUS
10
2.90059
20
-3.94316
11
2.90059
21
-4.49434
0
LINE
8
BLACK
6
CONTINUOUS
10
2.34941
20
-3.94316
11
2.90059
21
-3.94316
0
LINE
8
BLACK
6
CONTINUOUS
10
2.34941
20
-4.49434
11
2.90059
21
-4.49434
0
LINE
8
BLACK
6
CONTINUOUS
10
2.34941
20
-3.94316
11
2.34941
21
-4.49434
0
LINE
8
BLACK
6
CONTINUOUS
10
4.40059
20
-3.94316
11
4.40059
21
-4.49434
0
LINE
8
BLACK
6
CONTINUOUS
10
3.84941
20
-3.94316
11
4.40059
21
-3.94316
0
LINE
8
BLACK
6
CONTINUOUS
10
3.84941
20
-4.49434
11
4.40059
21
-4.49434
0
LINE
8
BLACK
6
CONTINUOUS
10
3.84941
20
-3.94316
11
3.84941
21
-4.49434
0
LINE
8
BLACK
6
CONTINUOUS
10
5.15059
20
-3.94316
11
5.15059
21
-4.49434
0
LINE
8
BLACK
6
CONTINUOUS
10
4.59941
20
-3.94316
11
5.15059
21
-3.94316
0
LINE
8
BLACK
6
CONTINUOUS
10
4.59941
20
-4.49434
11
5.15059
21
-4.49434
0
LINE
8
BLACK
6
CONTINUOUS
10
4.59941
20
-3.94316
11
4.59941
21
-4.49434
0
LINE
8
BLACK
6
CONTINUOUS
10
1.40059
20
-2.44316
11
1.40059
21
-2.99434
0
LINE
8
BLACK
6
CONTINUOUS
10
0.849409
20
-2.44316
11
1.40059
21
-2.44316
0
LINE
8
BLACK
6
CONTINUOUS
10
0.849409
20
-2.99434
11
1.40059
21
-2.99434
0
LINE
8
BLACK
6
CONTINUOUS
10
0.849409
20
-2.44316
11
0.849409
21
-2.99434
0
LINE
8
BLACK
6
CONTINUOUS
10
1.21309
20
-1.69316
11
1.21309
21
-2.24434
0
LINE
8
BLACK
6
CONTINUOUS
10
0.661909
20
-1.69316
11
1.21309
21
-1.69316
0
LINE
8
BLACK
6
CONTINUOUS
10
0.661909
20
-2.24434
11
1.21309
21
-2.24434
0
LINE
8
BLACK
6
CONTINUOUS
10
0.661909
20
-1.69316
11
0.661909
21
-2.24434
0
LINE
8
BLACK
6
CONTINUOUS
10
0.943158
20
-3.19316
11
0.943158
21
-3.74434
0
LINE
8
BLACK
6
CONTINUOUS
10
0.943158
20
-3.74434
11
1.49434
21
-3.74434
0
LINE
8
BLACK
6
CONTINUOUS
10
0.943158
20
-3.19316
11
1.49434
21
-3.19316
0
LINE
8
BLACK
6
CONTINUOUS
10
1.49434
20
-3.19316
11
1.49434
21
-3.74434
0
LINE
8
BLACK
6
CONTINUOUS
10
2.52559
20
-3.19316
11
2.52559
21
-3.74434
0
LINE
8
BLACK
6
CONTINUOUS
10
1.97441
20
-3.19316
11
2.52559
21
-3.19316
0
LINE
8
BLACK
6
CONTINUOUS
10
1.97441
20
-3.74434
11
2.52559
21
-3.74434
0
LINE
8
BLACK
6
CONTINUOUS
10
1.97441
20
-3.19316
11
1.97441
21
-3.74434
0
LINE
8
BLACK
6
CONTINUOUS
10
3.27559
20
-3.19316
11
3.27559
21
-3.74434
0
LINE
8
BLACK
6
CONTINUOUS
10
2.72441
20
-3.19316
11
3.27559
21
-3.19316
0
LINE
8
BLACK
6
CONTINUOUS
10
2.72441
20
-3.74434
11
3.27559
21
-3.74434
0
LINE
8
BLACK
6
CONTINUOUS
10
2.72441
20
-3.19316
11
2.72441
21
-3.74434
0
LINE
8
BLACK
6
CONTINUOUS
10
4.02559
20
-3.19316
11
4.02559
21
-3.74434
0
LINE
8
BLACK
6
CONTINUOUS
10
3.47441
20
-3.19316
11
4.02559
21
-3.19316
0
LINE
8
BLACK
6
CONTINUOUS
10
3.47441
20
-3.74434
11
4.02559
21
-3.74434
0
LINE
8
BLACK
6
CONTINUOUS
10
3.47441
20
-3.19316
11
3.47441
21
-3.74434
0
LINE
8
BLACK
6
CONTINUOUS
10
4.77559
20
-3.19316
11
4.77559
21
-3.74434
0
LINE
8
BLACK
6
CONTINUOUS
10
4.22441
20
-3.19316
11
4.77559
21
-3.19316
0
LINE
8
BLACK
6
CONTINUOUS
10
4.22441
20
-3.74434
11
4.77559
21
-3.74434
0
LINE
8
BLACK
6
CONTINUOUS
10
4.22441
20
-3.19316
11
4.22441
21
-3.74434
0
LINE
8
BLACK
6
CONTINUOUS
10
5.52559
20
-3.19316
11
5.52559
21
-3.74434
0
LINE
8
BLACK
6
CONTINUOUS
10
4.97441
20
-3.19316
11
5.52559
21
-3.19316
0
LINE
8
BLACK
6
CONTINUOUS
10
4.97441
20
-3.74434
11
5.52559
21
-3.74434
0
LINE
8
BLACK
6
CONTINUOUS
10
4.97441
20
-3.19316
11
4.97441
21
-3.74434
0
LINE
8
BLACK
6
CONTINUOUS
10
2.33809
20
-2.44316
11
2.33809
21
-2.99434
0
LINE
8
BLACK
6
CONTINUOUS
10
1.78691
20
-2.44316
11
2.33809
21
-2.44316
0
LINE
8
BLACK
6
CONTINUOUS
10
1.78691
20
-2.99434
11
2.33809
21
-2.99434
0
LINE
8
BLACK
6
CONTINUOUS
10
1.78691
20
-2.44316
11
1.78691
21
-2.99434
0
LINE
8
BLACK
6
CONTINUOUS
10
3.08809
20
-2.44316
11
3.08809
21
-2.99434
0
LINE
8
BLACK
6
CONTINUOUS
10
2.53691
20
-2.44316
11
3.08809
21
-2.44316
0
LINE
8
BLACK
6
CONTINUOUS
10
2.53691
20
-2.99434
11
3.08809
21
-2.99434
0
LINE
8
BLACK
6
CONTINUOUS
10
2.53691
20
-2.44316
11
2.53691
21
-2.99434
0
LINE
8
BLACK
6
CONTINUOUS
10
3.83809
20
-2.44316
11
3.83809
21
-2.99434
0
LINE
8
BLACK
6
CONTINUOUS
10
3.28691
20
-2.44316
11
3.83809
21
-2.44316
0
LINE
8
BLACK
6
CONTINUOUS
10
3.28691
20
-2.99434
11
3.83809
21
-2.99434
0
LINE
8
BLACK
6
CONTINUOUS
10
3.28691
20
-2.44316
11
3.28691
21
-2.99434
0
LINE
8
BLACK
6
CONTINUOUS
10
4.58809
20
-2.44316
11
4.58809
21
-2.99434
0
LINE
8
BLACK
6
CONTINUOUS
10
4.03691
20
-2.44316
11
4.58809
21
-2.44316
0
LINE
8
BLACK
6
CONTINUOUS
10
4.03691
20
-2.99434
11
4.58809
21
-2.99434
0
LINE
8
BLACK
6
CONTINUOUS
10
4.03691
20
-2.44316
11
4.03691
21
-2.99434
0
LINE
8
BLACK
6
CONTINUOUS
10
5.33809
20
-2.44316
11
5.33809
21
-2.99434
0
LINE
8
BLACK
6
CONTINUOUS
10
4.78691
20
-2.44316
11
5.33809
21
-2.44316
0
LINE
8
BLACK
6
CONTINUOUS
10
4.78691
20
-2.99434
11
5.33809
21
-2.99434
0
LINE
8
BLACK
6
CONTINUOUS
10
4.78691
20
-2.44316
11
4.78691
21
-2.99434
0
LINE
8
BLACK
6
CONTINUOUS
10
4.96309
20
-1.69316
11
4.96309
21
-2.24434
0
LINE
8
BLACK
6
CONTINUOUS
10
4.41191
20
-1.69316
11
4.96309
21
-1.69316
0
LINE
8
BLACK
6
CONTINUOUS
10
4.41191
20
-2.24434
11
4.96309
21
-2.24434
0
LINE
8
BLACK
6
CONTINUOUS
10
4.41191
20
-1.69316
11
4.41191
21
-2.24434
0
LINE
8
BLACK
6
CONTINUOUS
10
4.21309
20
-1.69316
11
4.21309
21
-2.24434
0
LINE
8
BLACK
6
CONTINUOUS
10
3.66191
20
-1.69316
11
4.21309
21
-1.69316
0
LINE
8
BLACK
6
CONTINUOUS
10
3.66191
20
-2.24434
11
4.21309
21
-2.24434
0
LINE
8
BLACK
6
CONTINUOUS
10
3.66191
20
-1.69316
11
3.66191
21
-2.24434
0
LINE
8
BLACK
6
CONTINUOUS
10
3.46309
20
-1.69316
11
3.46309
21
-2.24434
0
LINE
8
BLACK
6
CONTINUOUS
10
2.91191
20
-1.69316
11
3.46309
21
-1.69316
0
LINE
8
BLACK
6
CONTINUOUS
10
2.91191
20
-2.24434
11
3.46309
21
-2.24434
0
LINE
8
BLACK
6
CONTINUOUS
10
2.91191
20
-1.69316
11
2.91191
21
-2.24434
0
LINE
8
BLACK
6
CONTINUOUS
10
2.71309
20
-1.69316
11
2.71309
21
-2.24434
0
LINE
8
BLACK
6
CONTINUOUS
10
2.16191
20
-1.69316
11
2.71309
21
-1.69316
0
LINE
8
BLACK
6
CONTINUOUS
10
2.16191
20
-2.24434
11
2.71309
21
-2.24434
0
LINE
8
BLACK
6
CONTINUOUS
10
2.16191
20
-1.69316
11
2.16191
21
-2.24434
0
LINE
8
BLACK
6
CONTINUOUS
10
1.96309
20
-1.69316
11
1.96309
21
-2.24434
0
LINE
8
BLACK
6
CONTINUOUS
10
1.41191
20
-1.69316
11
1.96309
21
-1.69316
0
LINE
8
BLACK
6
CONTINUOUS
10
1.41191
20
-2.24434
11
1.96309
21
-2.24434
0
LINE
8
BLACK
6
CONTINUOUS
10
1.41191
20
-1.69316
11
1.41191
21
-2.24434
0
LINE
8
BLACK
6
CONTINUOUS
10
0.775402
20
-4.49438
11
0.778828
21
-4.49438
0
LINE
8
BLACK
6
CONTINUOUS
10
1.0741
20
-4.55343
11
1.0741
21
-4.51406
0
LINE
8
BLACK
6
CONTINUOUS
10
0.755717
20
-3.96288
11
0.755717
21
-4.47469
0
LINE
8
BLACK
6
CONTINUOUS
10
0.798513
20
-4.51406
11
0.798513
21
-4.55343
0
LINE
8
BLACK
6
CONTINUOUS
10
0.818198
20
-4.57312
11
1.05442
21
-4.57312
0
LINE
8
BLACK
6
CONTINUOUS
10
1.73851
20
-4.51406
11
1.73851
21
-4.55343
0
LINE
8
BLACK
6
CONTINUOUS
10
2.03721
20
-3.9432
11
0.775402
21
-3.9432
0
LINE
8
BLACK
6
CONTINUOUS
10
2.0569
20
-4.47469
11
2.0569
21
-3.96288
0
LINE
8
BLACK
6
CONTINUOUS
10
2.03379
20
-4.49438
11
2.03721
21
-4.49438
0
LINE
8
BLACK
6
CONTINUOUS
10
1.7582
20
-4.57312
11
1.99442
21
-4.57312
0
LINE
8
BLACK
6
CONTINUOUS
10
2.0141
20
-4.55343
11
2.0141
21
-4.51406
0
LINE
8
BLACK
6
CONTINUOUS
10
1.09379
20
-4.49438
11
1.71883
21
-4.49438
0
ARC
8
BLACK
10
1.71883
20
-4.51406
40
0.019685
50
-0
51
90
0
ARC
8
BLACK
10
0.818198
20
-4.55343
40
0.019685
50
180
51
270
0
ARC
8
BLACK
10
1.09379
20
-4.51406
40
0.019685
50
90
51
180
0
ARC
8
BLACK
10
0.778828
20
-4.51406
40
0.019685
50
-0
51
90
0
ARC
8
BLACK
10
1.05442
20
-4.55343
40
0.019685
50
-90
51
-0
0
ARC
8
BLACK
10
0.775402
20
-4.47469
40
0.019685
50
180
51
270
0
ARC
8
BLACK
10
0.775402
20
-3.96288
40
0.019685
50
90
51
180
0
ARC
8
BLACK
10
1.7582
20
-4.55343
40
0.019685
50
180
51
270
0
ARC
8
BLACK
10
1.99442
20
-4.55343
40
0.019685
50
-90
51
-0
0
ARC
8
BLACK
10
2.03721
20
-4.47469
40
0.019685
50
-90
51
-0
0
ARC
8
BLACK
10
2.03721
20
-3.96288
40
0.019685
50
-0
51
90
0
ARC
8
BLACK
10
2.03379
20
-4.51406
40
0.019685
50
90
51
180
  0
ENDSEC
  0
EOF
